<svg width="30" height="30" viewBox="0 0 30 30" fill="none" xmlns="http://www.w3.org/2000/svg">
<path d="M7.4315 22.0073C6.51916 22.0073 5.66128 21.6508 5.00766 20.9925C4.35404 20.3343 4 19.4704 4 18.5516C4 17.6329 4.35404 16.7689 5.00766 16.1107L7.40427 13.6972V9.84385C7.40427 5.52425 10.9175 2 15.2205 2C19.5235 2 23.0367 5.52425 23.0367 9.87128V13.7246L25.4333 16.1381C26.0733 16.7826 26.441 17.6603 26.441 18.5791C26.441 20.4715 24.9022 22.021 23.0231 22.021H7.4315V22.0073ZM15.2341 4.04324C15.0435 4.04324 14.8528 4.04324 14.6758 4.07067C11.6528 4.41349 9.4196 6.97783 9.46045 10.0221V13.7795C9.46045 14.2869 9.26981 14.7531 8.91577 15.1097L6.46469 17.578C6.16512 17.8797 6.01533 18.3185 6.0698 18.7436C6.19235 19.4567 6.77788 19.9504 7.47236 19.9504H22.9686C23.6903 19.9504 24.2758 19.4567 24.3848 18.771C24.4392 18.3048 24.2895 17.866 23.9899 17.5643L21.5524 15.1097C21.1984 14.7531 21.0077 14.2869 21.0077 13.7795V9.85757C21.0077 9.66558 21.0077 9.48732 20.9805 9.29533C20.6945 6.30589 18.2162 4.04324 15.2341 4.04324Z" fill="#595B66"/>
<path d="M12.6751 28.0001C12.1168 28.0001 11.6538 27.5338 11.6538 26.9716C11.6538 26.4094 12.1168 25.9431 12.6751 25.9431H17.7679C18.3262 25.9431 18.7892 26.4094 18.7892 26.9716C18.7892 27.5338 18.3262 28.0001 17.7679 28.0001H12.6751Z" fill="#595B66"/>
</svg>
