<svg width="18" height="18" viewBox="0 0 18 18" fill="none" xmlns="http://www.w3.org/2000/svg">
<g clip-path="url(#clip0_10387_39541)">
<path d="M9 1C7.41775 1 5.87103 1.46919 4.55544 2.34824C3.23985 3.22729 2.21447 4.47672 1.60897 5.93853C1.00347 7.40034 0.84504 9.00887 1.15372 10.5607C1.4624 12.1126 2.22433 13.538 3.34315 14.6569C4.46197 15.7757 5.88743 16.5376 7.43928 16.8463C8.99113 17.155 10.5997 16.9965 12.0615 16.391C13.5233 15.7855 14.7727 14.7602 15.6518 13.4446C16.5308 12.129 17 10.5822 17 9C16.9978 6.87895 16.1542 4.84542 14.6544 3.34562C13.1546 1.84581 11.121 1.00224 9 1ZM12.5123 7.58923L8.20462 11.8969C8.14746 11.9541 8.07959 11.9995 8.00489 12.0305C7.93018 12.0615 7.8501 12.0774 7.76923 12.0774C7.68836 12.0774 7.60828 12.0615 7.53358 12.0305C7.45887 11.9995 7.391 11.9541 7.33385 11.8969L5.48769 10.0508C5.37222 9.9353 5.30735 9.77868 5.30735 9.61538C5.30735 9.45208 5.37222 9.29547 5.48769 9.18C5.60317 9.06453 5.75978 8.99966 5.92308 8.99966C6.08638 8.99966 6.24299 9.06453 6.35846 9.18L7.76923 10.5915L11.6415 6.71846C11.6987 6.66128 11.7666 6.61593 11.8413 6.58499C11.916 6.55404 11.9961 6.53812 12.0769 6.53812C12.1578 6.53812 12.2378 6.55404 12.3126 6.58499C12.3873 6.61593 12.4551 6.66128 12.5123 6.71846C12.5695 6.77564 12.6148 6.84351 12.6458 6.91822C12.6767 6.99292 12.6927 7.07299 12.6927 7.15384C12.6927 7.2347 12.6767 7.31477 12.6458 7.38947C12.6148 7.46418 12.5695 7.53205 12.5123 7.58923Z" fill="black"/>
</g>
<defs>
<clipPath id="clip0_10387_39541">
<rect width="18" height="18" fill="white"/>
</clipPath>
</defs>
</svg>
