<svg width="30" height="30" viewBox="0 0 30 30" fill="none" xmlns="http://www.w3.org/2000/svg">
<path d="M27.5 15.0065C27.5 15.3573 27.3428 15.6822 27.0809 15.9031L22.9165 19.4503C22.6938 19.6452 22.4188 19.7362 22.1438 19.7362C21.8033 19.7362 21.4759 19.5932 21.2402 19.3204C20.808 18.8266 20.8735 18.073 21.3711 17.6572L23.0998 16.1889H13.2255C12.5707 16.1889 12.0338 15.6562 12.0338 15.0065C12.0338 14.3568 12.5707 13.8241 13.2255 13.8241H23.0998L21.3711 12.3558C20.8735 11.927 20.808 11.1864 21.2402 10.6927C21.6723 10.1989 22.4188 10.147 22.9165 10.5627L27.0809 14.1099C27.3428 14.3308 27.5 14.6557 27.5 15.0065ZM16.7876 23.2704C16.7876 24.5697 15.7137 25.6352 14.4041 25.6352H7.26689C5.95731 25.6352 4.88345 24.5697 4.88345 23.2704V6.72965C4.88345 5.4303 5.95731 4.36483 7.26689 4.36483H14.4041C15.7137 4.36483 16.7876 5.4303 16.7876 6.72965V12.044H19.171V6.72965C19.171 4.11796 17.0364 2 14.4041 2H7.26689C4.63463 2 2.5 4.11796 2.5 6.72965V23.2704C2.5 25.8821 4.63463 28 7.26689 28H14.4041C17.0364 28 19.171 25.8821 19.171 23.2704V17.9561H16.7876V23.2704Z" fill="#595B66"/>
</svg>
