<svg width="24" height="25" viewBox="0 0 24 25" fill="none" xmlns="http://www.w3.org/2000/svg">
<g id="icon">
<path id="Icon" d="M16.2353 11.6111H20C20.5523 11.6111 21 12.0533 21 12.5988V18.3686V18.5C21 19.6046 20.1046 20.5 19 20.5H5.25M3 6.48765V18.5313C3 19.6186 3.88144 20.5 4.96875 20.5V20.5C6.05606 20.5 6.9375 19.6186 6.9375 18.5313V12.5988C6.9375 12.0533 7.38522 11.6111 7.9375 11.6111H19V9.27633C19 8.73086 18.5523 8.28867 18 8.28867H11.4118L9.88369 5.95183C9.69949 5.67014 9.38317 5.5 9.04365 5.5H4C3.44772 5.5 3 5.94219 3 6.48765Z" stroke="#495065" style="stroke:#495065;stroke:color(display-p3 0.2863 0.3137 0.3961);stroke-opacity:1;" stroke-width="2" stroke-linecap="round" stroke-linejoin="round"/>
</g>
</svg>
