<svg width="23" height="29" viewBox="0 0 23 29" fill="none" xmlns="http://www.w3.org/2000/svg">
<g id="Group 5">
<path id="Vector" d="M4.37415 0C1.95836 0 0 1.93908 0 4.33108V23.9766C0 26.3686 1.95836 28.3077 4.37415 28.3077H13.4798C14.652 28.3077 15.7526 27.8548 16.5674 27.0338L21.7135 21.9385C22.5426 21.1175 23 20.0277 23 18.8812V4.33108C23 1.93908 21.0416 0 18.6259 0H4.37415ZM15.8527 25.1655V23.7077C15.8527 22.3348 16.982 21.2166 18.3686 21.2166H19.8409L15.8527 25.1655ZM21.156 4.33108V18.8812C21.156 19.0511 21.1417 19.2209 21.1131 19.3766H18.3828C15.9671 19.3766 14.0087 21.3157 14.0087 23.7077V26.4111C13.8515 26.4394 13.6799 26.4535 13.5084 26.4535H4.38844C3.00186 26.4535 1.87259 25.3354 1.87259 23.9625V4.33108C1.87259 2.95815 3.00186 1.84 4.38844 1.84H18.6402C20.0267 1.84 21.156 2.95815 21.156 4.33108Z" fill="black"/>
<path id="Vector_2" d="M5.38911 7.38834H9.76326C10.2779 7.38834 10.6924 6.97788 10.6924 6.46834C10.6924 5.9588 10.2779 5.54834 9.76326 5.54834H5.38911C4.8745 5.54834 4.45996 5.9588 4.45996 6.46834C4.45996 6.97788 4.8745 7.38834 5.38911 7.38834Z" fill="black"/>
<path id="Vector_3" d="M17.6253 11.1958H5.38911C4.8745 11.1958 4.45996 11.6063 4.45996 12.1158C4.45996 12.6253 4.8745 13.0358 5.38911 13.0358H17.6253C18.1399 13.0358 18.5544 12.6253 18.5544 12.1158C18.5544 11.6063 18.1399 11.1958 17.6253 11.1958Z" fill="black"/>
<path id="Vector_4" d="M17.6253 15.6824H5.38911C4.8745 15.6824 4.45996 16.0928 4.45996 16.6024C4.45996 17.1119 4.8745 17.5224 5.38911 17.5224H17.6253C18.1399 17.5224 18.5544 17.1119 18.5544 16.6024C18.5544 16.0928 18.1399 15.6824 17.6253 15.6824Z" fill="black"/>
<path id="Vector_5" d="M10.9068 20.1692H5.38911C4.8745 20.1692 4.45996 20.5797 4.45996 21.0892C4.45996 21.5987 4.8745 22.0092 5.38911 22.0092H10.9068C11.4214 22.0092 11.836 21.5987 11.836 21.0892C11.836 20.5797 11.4214 20.1692 10.9068 20.1692Z" fill="black"/>
<path id="Vector_6" d="M15.6958 6.56727L14.881 5.7605C14.5236 5.40666 13.9232 5.40666 13.5659 5.7605C13.2085 6.11435 13.2085 6.70881 13.5659 7.06266L15.0382 8.5205C15.224 8.7045 15.4528 8.78943 15.6958 8.78943C15.9388 8.78943 16.1675 8.69035 16.3533 8.5205L19.4838 5.42081C19.8412 5.06696 19.8412 4.4725 19.4838 4.11866C19.1265 3.76481 18.5261 3.76481 18.1687 4.11866L15.6958 6.56727Z" fill="black"/>
</g>
</svg>
