<svg width="29" height="27" viewBox="0 0 29 27" fill="none" xmlns="http://www.w3.org/2000/svg">
<g id="Group">
<path id="Vector" d="M28.1001 18.4538V3.89447C28.1001 1.73753 26.3626 0 24.2056 0H3.89447C1.73753 0 0 1.73753 0 3.89447V18.4538C0 20.6107 1.73753 22.3483 3.89447 22.3483H13.6306L16.2969 26.1529C16.5365 26.5124 16.926 26.7221 17.3454 26.7221C17.7648 26.7221 18.1542 26.5124 18.3939 26.1529L21.0601 22.3483H24.2056C26.3626 22.3483 28.1001 20.6107 28.1001 18.4538ZM26.3026 18.4538C26.3026 19.6221 25.374 20.5508 24.2056 20.5508H20.6407C20.3411 20.5508 20.0715 20.7006 19.8918 20.9403L17.3753 24.5352L14.8589 20.9403C14.6792 20.7006 14.4095 20.5508 14.11 20.5508H3.89447C2.72613 20.5508 1.79745 19.6221 1.79745 18.4538V3.89447C1.79745 2.72613 2.72613 1.79745 3.89447 1.79745H24.2056C25.374 1.79745 26.3026 2.72613 26.3026 3.89447V18.4538Z" fill="#7260F8"/>
<path id="Vector_2" d="M22.2885 7.36967C22.2885 6.86039 21.8991 6.47095 21.3898 6.47095H13.6009C13.0916 6.47095 12.7021 6.86039 12.7021 7.36967C12.7021 7.87895 13.0916 8.26839 13.6009 8.26839H21.3898C21.8991 8.26839 22.2885 7.87895 22.2885 7.36967Z" fill="#7260F8"/>
<path id="Vector_3" d="M22.2886 10.9644C22.2886 10.4551 21.8991 10.0657 21.3898 10.0657H7.90898C7.3997 10.0657 7.01025 10.4551 7.01025 10.9644C7.01025 11.4737 7.3997 11.8631 7.90898 11.8631H21.3898C21.8991 11.8631 22.2886 11.4737 22.2886 10.9644Z" fill="#7260F8"/>
<path id="Vector_4" d="M22.2886 14.5594C22.2886 14.0501 21.8991 13.6606 21.3898 13.6606H7.90898C7.3997 13.6606 7.01025 14.0501 7.01025 14.5594C7.01025 15.0686 7.3997 15.4581 7.90898 15.4581H21.3898C21.8991 15.4581 22.2886 15.0686 22.2886 14.5594Z" fill="#7260F8"/>
</g>
</svg>
