<svg width="30" height="30" viewBox="0 0 30 30" fill="none" xmlns="http://www.w3.org/2000/svg">
<g id="Property 1=lecture2, size=l" clip-path="url(#clip0_54_6600)">
<circle id="Ellipse 1" cx="15" cy="15" r="15" fill="#7260F8"/>
<path id="Vector" d="M20.4532 23.9912C20.1783 23.9912 19.9389 23.8148 19.8502 23.5502L18.9281 20.5252H11.0719L10.1498 23.5502C10.07 23.8148 9.83054 23.9912 9.5468 23.9912C9.48473 23.9912 9.42266 23.9824 9.36059 23.9647C9.03251 23.8677 8.84631 23.5149 8.94384 23.1886L9.75074 20.5252H7.31232C6.59409 20.5252 6.00887 19.9432 6 19.22V18.2763C6 17.6502 6.45222 17.121 7.05517 17.0064V8.83096C7.05517 7.95786 7.7734 7.24351 8.6601 7.23469H14.4236V6.62616C14.4236 6.28221 14.7074 6 15.0532 6C15.399 6 15.6828 6.28221 15.6828 6.62616V7.23469H21.4463C22.3241 7.23469 23.0424 7.94904 23.0512 8.83096V17.0328C23.6099 17.1916 24 17.6943 24 18.2852V19.2288C24 19.9432 23.4148 20.5252 22.6877 20.5341H20.2404L21.0473 23.1975C21.1448 23.5238 20.9586 23.8765 20.6305 23.9735C20.5773 23.9912 20.5153 24 20.4532 24V23.9912ZM7.25911 18.2763C7.25911 18.2763 7.25911 18.5858 7.25911 18.6123V19.22L22.7498 19.2816V18.2763H7.6875H7.25911ZM21.7921 16.9711V8.82215C21.7921 8.63694 21.6414 8.4782 21.4463 8.4782H8.6601C8.47389 8.4782 8.31429 8.62812 8.31429 8.82215V16.9711H21.7921Z" fill="white"/>
</g>
<defs>
<clipPath id="clip0_54_6600">
<rect width="30" height="30" fill="white"/>
</clipPath>
</defs>
</svg>
