<svg width="18" height="19" viewBox="0 0 18 19" fill="none" xmlns="http://www.w3.org/2000/svg">
<g id="icon">
<path id="Vector" d="M16 9.504C16 9.71989 15.912 9.9198 15.7653 10.0557L13.4332 12.2386C13.3085 12.3586 13.1545 12.4146 13.0005 12.4146C12.8098 12.4146 12.6265 12.3266 12.4945 12.1587C12.2525 11.8548 12.2892 11.3911 12.5678 11.1352L13.5359 10.2316H8.00629C7.6396 10.2316 7.33892 9.9038 7.33892 9.504C7.33892 9.1042 7.6396 8.77636 8.00629 8.77636H13.5359L12.5678 7.87281C12.2892 7.60894 12.2525 7.15317 12.4945 6.84933C12.7365 6.54548 13.1545 6.51351 13.4332 6.76938L15.7653 8.95228C15.912 9.08821 16 9.28811 16 9.504ZM10.001 14.5895C10.001 15.3891 9.39969 16.0447 8.66632 16.0447H4.66946C3.93609 16.0447 3.33473 15.3891 3.33473 14.5895V4.41056C3.33473 3.61096 3.93609 2.95528 4.66946 2.95528H8.66632C9.39969 2.95528 10.001 3.61096 10.001 4.41056V7.68092H11.3358V4.41056C11.3358 2.80336 10.1404 1.5 8.66632 1.5H4.66946C3.19539 1.5 2 2.80336 2 4.41056V14.5895C2 16.1967 3.19539 17.5 4.66946 17.5H8.66632C10.1404 17.5 11.3358 16.1967 11.3358 14.5895V11.3191H10.001V14.5895Z" fill="#B5B6BC"/>
</g>
</svg>
