<svg width="83" height="44" viewBox="0 0 83 44" fill="none" xmlns="http://www.w3.org/2000/svg">
<g id="mvp_&#235;&#161;&#156;&#234;&#179;&#160; 1" clip-path="url(#clip0_345_10137)">
<g id="_&#236;&#157;&#180;&#236;&#150;&#180;_1-2">
<g id="Group">
<path id="Vector" d="M0.00824487 39.159C0.100645 37.9832 0.652546 37.1683 2.61542 37.2296C5.16141 37.3192 7.8922 37.3806 10.6217 37.4101C10.5905 36.8983 10.5606 36.3852 10.5606 35.9323C10.5606 35.4193 10.6217 34.937 10.7441 34.5148C7.03188 33.7305 4.63947 30.9874 4.63947 27.4293C4.63947 23.0575 7.92216 20.1021 13.2901 20.1021C18.1985 20.1021 21.4812 23.0575 21.4812 27.4293C21.4812 31.1985 19.396 33.7317 15.5302 34.4853C15.6837 34.9075 15.7449 35.3898 15.7449 35.9029C15.7449 36.4159 15.7449 36.9277 15.715 37.4101C18.4145 37.3499 21.0529 37.2296 23.5065 37.048C25.593 36.897 26.3285 38.0728 26.3285 39.31C26.3285 40.5471 25.7766 41.0896 24.212 41.2394C20.0702 41.6309 8.16815 42.2041 2.18588 41.4198C0.591362 41.2087 -0.0841549 40.3348 0.00824487 39.159ZM13.169 30.505C15.3466 30.505 16.8188 29.2985 16.8188 27.3385C16.8188 25.3784 15.3154 24.1732 13.169 24.1732C11.0226 24.1732 9.58037 25.4999 9.58037 27.3385C9.58037 29.2985 11.0837 30.505 13.169 30.505Z" fill="#7260F8"/>
<path id="Vector_2" d="M31.7853 37.5905C38.4419 37.8323 46.1423 37.9219 52.6764 37.4101C54.7629 37.2592 55.4984 38.435 55.4984 39.6721C55.4984 40.9093 54.9465 41.4518 53.3819 41.6015C49.2402 41.993 37.3381 42.5662 31.3558 41.7819C29.7613 41.5708 29.0858 40.6957 29.1782 39.5199C29.2706 38.3441 29.8225 37.5304 31.7853 37.5905ZM31.8465 32.3743C31.7541 31.1985 31.6929 29.6901 31.8153 28.183C31.9377 26.8562 32.6132 26.283 34.2689 26.1627C35.8035 26.0425 43.1955 25.9823 47.5832 26.0425C47.8592 26.0425 47.9203 26.0118 47.9203 25.7405C47.9203 25.4987 47.9203 24.5954 47.8891 24.3536C47.8579 24.1732 47.7967 24.1425 47.582 24.1425C45.4343 24.0824 39.0225 24.2334 34.5748 24.323C32.3048 24.3831 31.7828 23.5694 31.7828 22.3629C31.7828 21.2472 32.3959 20.4335 34.2976 20.3734C35.9845 20.3132 48.2862 20.1623 50.2191 20.2825C51.8761 20.3734 52.5503 20.976 52.6727 22.3027C52.7339 23.1766 52.7651 26.8562 52.7039 27.881C52.6427 29.0875 52.182 29.8706 50.3115 29.8411C45.8638 29.781 38.9925 29.8411 37.1508 29.9614C36.6301 29.9921 36.5065 30.1123 36.5065 30.3836V31.3483C36.5065 31.6195 36.7525 31.7705 37.212 31.7999C41.1689 31.9202 45.9238 31.8306 50.2191 31.498C52.182 31.347 53.4706 32.0098 53.4706 33.3378C53.4706 34.6658 52.6727 35.3875 51.017 35.4783C46.2309 35.7495 39.482 35.9005 35.771 35.6587C32.7343 35.4783 32.0288 34.6633 31.844 32.3719L31.8465 32.3743Z" fill="#7260F8"/>
<path id="Vector_3" d="M59.1157 37.4996C59.0233 32.7964 58.8697 29.1475 58.9621 23.4183C58.992 22.0915 59.76 21.4582 61.4157 21.3981C64.6359 21.3085 68.4405 21.2471 71.5085 21.3981C73.1654 21.4889 73.9009 22.0915 73.9933 23.9914C74.1768 28.3632 74.0545 32.7964 73.9621 37.4996C73.9321 39.3995 73.1642 40.0328 70.4034 40.2132C67.9498 40.3937 65.1266 40.3937 62.6731 40.2132C59.9123 40.0328 59.1456 39.3995 59.1144 37.4996H59.1157ZM63.687 35.0879C63.687 35.9323 63.8705 36.0219 64.7908 36.0832C65.6186 36.1434 67.5215 36.1434 68.2882 36.0832C69.2085 36.0231 69.362 35.9323 69.392 35.0879C69.4844 32.9768 69.4532 28.7854 69.2696 25.7109C69.2384 25.2581 69.1473 25.1378 68.6253 25.1071C67.4903 25.047 65.3127 25.0776 64.3 25.1071C63.7794 25.1378 63.6557 25.2581 63.6557 25.7109C63.6258 29.0285 63.6557 32.9781 63.687 35.0879ZM79.9768 19.7092C81.3578 19.7092 82.554 20.4628 82.7688 23.2673C83.0447 26.6744 83.0759 35.8414 82.8612 40.3642C82.7688 42.2936 82.0021 43.5001 80.4688 43.5001C78.9354 43.5001 78.0451 42.3844 78.1063 40.3642C78.2899 35.0879 78.2287 28.0012 78.1063 25.2274C78.0751 24.4136 78.0451 23.2673 77.9839 22.2719C77.8915 20.6138 78.4747 19.708 79.978 19.708L79.9768 19.7092Z" fill="#7260F8"/>
</g>
<path id="Vector_4" d="M2.38027 18.5936C5.86649 14.0635 11.3892 11.3793 17.0581 10.665C21.4746 9.95434 26.097 10.9853 29.8317 13.397C30.4561 13.8057 31.003 14.1764 31.5511 14.7091L30.1689 14.8649C30.8781 13.591 31.7984 12.4483 32.841 11.448C35.9926 8.48889 40.1044 6.6847 44.386 5.98634C50.4032 4.96151 56.2593 7.21614 59.9778 12.031L57.9812 12.2323C58.7791 10.8589 59.7843 9.57877 60.9243 8.46189C63.2468 6.24285 65.834 4.48898 68.8107 3.22113C70.3066 2.60132 71.8886 2.16071 73.4832 1.8956C74.3847 1.74218 75.2412 2.3399 75.3936 3.22604C75.5522 4.13428 74.8991 4.99587 73.9689 5.10756C72.5941 5.27693 71.2531 5.58991 69.9582 6.06121C66.1124 7.5647 62.3889 10.0341 60.1314 13.5026C59.7281 14.2194 58.6742 14.3274 58.1336 13.7039C56.5852 11.6677 54.6274 9.90402 52.2175 8.92828C45.461 6.09066 35.3907 9.48795 31.6623 15.6836C31.4288 16.1009 30.8831 16.2469 30.4698 15.9953C28.6068 14.2807 26.2556 13.0607 23.8033 12.3648C19.1084 11.0135 13.2135 12.1096 8.93191 14.293C6.65813 15.4713 4.63158 17.1061 2.98711 19.0711C2.85101 19.2343 2.60502 19.2588 2.43895 19.1251C2.27538 18.9937 2.25041 18.7569 2.37777 18.5936H2.38027Z" fill="#7260F8"/>
<path id="Vector_5" d="M80.8206 0.833771L81.139 0.545345C81.2539 0.44102 81.4374 0.529389 81.4262 0.68158L81.395 1.10624C81.3625 1.53949 81.6747 1.92365 82.1105 1.9887L82.5387 2.05252C82.6923 2.07584 82.7385 2.27222 82.6099 2.35813L82.2528 2.59869C81.8882 2.84416 81.7771 3.32282 81.9968 3.69962L82.2128 4.06782C82.2903 4.20038 82.1629 4.35748 82.0143 4.31329L81.601 4.18933C81.179 4.06169 80.7282 4.27524 80.5659 4.67904L80.4073 5.07425C80.3499 5.21662 80.1451 5.21662 80.0877 5.07425L79.9291 4.67904C79.7668 4.27524 79.316 4.06169 78.894 4.18933L78.4806 4.31329C78.3321 4.3587 78.2034 4.20038 78.2821 4.06782L78.4981 3.69962C78.7179 3.32405 78.6068 2.84416 78.2422 2.59869L77.885 2.35813C77.7564 2.27222 77.8026 2.07584 77.9562 2.05252L78.3845 1.9887C78.8203 1.92365 79.1324 1.53949 79.1 1.10624L79.0688 0.68158C79.0575 0.529389 79.2423 0.44102 79.3559 0.545345L79.6744 0.833771C79.999 1.12833 80.4985 1.12833 80.8231 0.833771H80.8206Z" fill="#7260F8"/>
</g>
</g>
<defs>
<clipPath id="clip0_345_10137">
<rect width="83" height="43" fill="white" transform="translate(0 0.5)"/>
</clipPath>
</defs>
</svg>
