<svg width="24" height="24" viewBox="0 0 24 24" fill="none" xmlns="http://www.w3.org/2000/svg">
<path fill-rule="evenodd" clip-rule="evenodd" d="M11.5886 3.31406C11.8307 3.1689 12.1314 3.16209 12.3798 3.29615L20.8064 7.84302C21.4089 8.16815 21.7999 8.792 21.7999 9.48766V17.8418C21.7999 19.5067 20.4028 20.8002 18.75 20.8002H5.24995C3.59716 20.8002 2.19995 19.5067 2.19995 17.8418C2.19995 17.8418 2.19995 17.8419 2.19995 17.8418V9.99422C2.19995 9.33061 2.55639 8.72926 3.11734 8.39295L11.5886 3.31406ZM3.79995 17.8418C3.79995 17.8418 3.79995 17.8419 3.79995 17.8418C3.79995 18.561 4.41746 19.2002 5.24995 19.2002H18.75C19.5824 19.2002 20.1999 18.561 20.1999 17.8418V10.961L12.4356 16.0025C12.175 16.1718 11.8399 16.1748 11.5763 16.0102L11.2092 15.7816C10.975 15.6359 10.6397 15.4277 10.236 15.1779C9.42842 14.6781 8.34748 14.0121 7.25297 13.3464C6.15742 12.68 5.05249 12.0165 4.19541 11.5206C4.05595 11.44 3.92381 11.3641 3.79995 11.2938V17.8418ZM4.13506 9.64831C4.38307 9.78404 4.67527 9.94977 4.99668 10.1357C5.86929 10.6406 6.98623 11.3114 8.08443 11.9794C9.18367 12.648 10.2684 13.3163 11.078 13.8173C11.4478 14.0462 11.7604 14.2403 11.9909 14.3836L19.9639 9.20651L12.0208 4.92047L4.13506 9.64831Z" fill="black"/>
</svg>
