<svg width="88" height="37" viewBox="0 0 88 37" fill="none" xmlns="http://www.w3.org/2000/svg">
<rect y="5" width="88" height="32" rx="6" fill="#7260F8"/>
<path d="M15.6797 16.8906C15.6797 17.4473 16.2246 18.2031 17.1797 18.6133C18.1113 18.2148 18.6328 17.4883 18.6328 16.8906V16.7852H17.3789V15.8711H21.3164V16.7852H19.7578V16.9375C19.7578 17.6992 20.4258 18.5547 21.6914 18.8828L21.1992 19.6914C20.1738 19.4043 19.4883 18.7773 19.1602 18.0391C18.8086 18.7012 18.1523 19.293 17.168 19.5625C16.1777 19.2695 15.5215 18.666 15.1758 18.0039C14.8359 18.7422 14.1621 19.3926 13.1367 19.6914L12.6562 18.8828C13.8867 18.5312 14.5781 17.6172 14.5781 16.9375V16.7852H13.0078V15.8711H16.957V16.7852H15.6797V16.8906ZM21.9844 20.6406V21.543H12.3867V20.6406H16.6172V19.6328H17.7188V20.6406H21.9844ZM20.7773 22.5625V25.9961H19.6523V23.4531H13.4297V22.5625H20.7773ZM26.385 18.5898C26.385 20.3477 27.5334 22.1641 29.1506 22.8555L28.5413 23.7227C27.3049 23.1777 26.3205 22.0234 25.8342 20.6172C25.3479 22.1172 24.3577 23.3945 23.1389 23.9922L22.4944 23.1133C24.0764 22.375 25.2483 20.3945 25.26 18.5898V17.4766H22.8577V16.5508H28.7756V17.4766H26.385V18.5898ZM31.2131 15.4961V25.9961H30.0998V15.4961H31.2131ZM44.3503 15.4961V25.9961H43.2839V15.4961H44.3503ZM42.2175 15.7188V25.4688H41.1628V20.125H39.5339V19.2109H41.1628V15.7188H42.2175ZM38.5027 18.4258C38.5027 20.2188 39.2292 22.0117 40.7058 22.8672L40.0378 23.6875C39.0359 23.0898 38.3445 22.0293 37.987 20.7578C37.6062 22.1289 36.8913 23.2949 35.8659 23.9336L35.1863 23.1016C36.6745 22.1992 37.4363 20.2891 37.4363 18.4258V17.582H35.5027V16.6797H40.3073V17.582H38.5027V18.4258ZM55.0322 20.1016V20.9336H50.8017V21.8125H53.8369V24.1797H47.7197V25.0469H54.1298V25.8906H46.6298V23.4062H52.7353V22.6211H46.6181V21.8125H49.7002V20.9336H45.4814V20.1016H55.0322ZM50.8017 15.4492V16.375H54.083V17.2305H50.8955C51.1064 18.1211 52.5302 18.7422 54.5634 18.8477L54.2236 19.6914C52.3955 19.5625 50.9072 19.0234 50.2509 18.0977C49.5947 19.0234 48.1064 19.5625 46.2666 19.6914L45.9502 18.8477C47.9658 18.7422 49.3838 18.1211 49.6181 17.2305H46.4306V16.375H49.7002V15.4492H50.8017ZM63.7805 15.4961V19.75H65.468V20.6758H63.7805V25.9961H62.6789V15.4961H63.7805ZM61.7648 17.1367V18.0508H55.5422V17.1367H58.132V15.6367H59.2453V17.1367H61.7648ZM58.6945 18.8242C60.1945 18.8242 61.2961 19.832 61.3078 21.2617C61.2961 22.7031 60.1945 23.6992 58.6945 23.7109C57.1828 23.6992 56.0812 22.7031 56.0812 21.2617C56.0812 19.832 57.1828 18.8242 58.6945 18.8242ZM58.6945 19.7383C57.8039 19.7383 57.1359 20.3594 57.1477 21.2617C57.1359 22.1758 57.8039 22.7852 58.6945 22.7734C59.5852 22.7852 60.2414 22.1758 60.2414 21.2617C60.2414 20.3594 59.5852 19.7383 58.6945 19.7383ZM74.4623 15.4961V25.9961H73.3373V15.4961H74.4623ZM71.3334 16.6211C71.3334 19.6914 70.0209 22.3633 66.4233 24.0859L65.8373 23.1836C68.6323 21.8535 69.9916 19.9609 70.2084 17.5117H66.3413V16.6211H71.3334Z" fill="white"/>
<path d="M73.1723 0.468133C73.3315 0.240646 73.6685 0.240646 73.8277 0.468133L77 5H70L73.1723 0.468133Z" fill="#7260F8"/>
</svg>
