<svg width="20" height="21" viewBox="0 0 20 21" fill="none" xmlns="http://www.w3.org/2000/svg">
<path id="Vector" d="M16.0591 20.9897C15.7537 20.9897 15.4877 20.7839 15.3892 20.4753L14.3645 16.9461H5.63547L4.61084 20.4753C4.52217 20.7839 4.25616 20.9897 3.94089 20.9897C3.87192 20.9897 3.80296 20.9794 3.73399 20.9589C3.36946 20.8457 3.16256 20.4341 3.27094 20.0534L4.16749 16.9461H1.45813C0.660099 16.9461 0.00985222 16.267 0 15.4233V14.3224C0 13.5919 0.502463 12.9745 1.17241 12.8408V3.30279C1.17241 2.28417 1.97044 1.45076 2.95567 1.44047H9.35961V0.730523C9.35961 0.32925 9.67488 0 10.0591 0C10.4433 0 10.7586 0.32925 10.7586 0.730523V1.44047H17.1626C18.1379 1.44047 18.936 2.27389 18.9458 3.30279V12.8716C19.5665 13.0568 20 13.6433 20 14.3327V15.4336C20 16.267 19.3498 16.9461 18.5419 16.9564H15.8227L16.7192 20.0637C16.8276 20.4444 16.6207 20.856 16.2562 20.9691C16.197 20.9897 16.1281 21 16.0591 21V20.9897ZM1.45813 14.2607C1.45813 14.2607 1.39901 14.2915 1.39901 14.3224V15.4233L18.5517 15.4851L18.6108 14.3224L1.46798 14.2607H1.45813ZM17.5468 12.7996V3.29251C17.5468 3.07643 17.3793 2.89123 17.1626 2.89123H2.95567C2.74877 2.89123 2.57143 3.06615 2.57143 3.29251V12.7996H17.5468Z" fill="#B5B6BC"/>
</svg>
