<svg width="30" height="30" viewBox="0 0 30 30" fill="none" xmlns="http://www.w3.org/2000/svg">
<path d="M14.8571 26.0001C9.42232 26.0001 5 21.5778 5 16.143C5 10.7082 9.42232 6.28589 14.8571 6.28589C20.2919 6.28589 24.7142 10.7082 24.7142 16.143C24.7142 21.5778 20.2919 26.0001 14.8571 26.0001ZM14.8571 8.47636C10.6295 8.47636 7.19047 11.9154 7.19047 16.143C7.19047 20.3706 10.6295 23.8097 14.8571 23.8097C19.0847 23.8097 22.5238 20.3706 22.5238 16.143C22.5238 11.9154 19.0847 8.47636 14.8571 8.47636Z" fill="black"/>
<path d="M15.9522 5.19047H13.7617C13.1569 5.19047 12.6665 4.70005 12.6665 4.09524C12.6665 3.49042 13.1569 3 13.7617 3H15.9522C16.557 3 17.0474 3.49042 17.0474 4.09524C17.0474 4.70005 16.557 5.19047 15.9522 5.19047Z" fill="black"/>
<path d="M18.7292 18.466L15.9522 15.689V11.762C15.9522 11.1572 15.4618 10.6667 14.857 10.6667C14.2521 10.6667 13.7617 11.1572 13.7617 11.762V16.1417C13.7617 16.1782 13.7642 16.2147 13.7666 16.2512C13.7678 16.2658 13.7715 16.2804 13.7727 16.295C13.7751 16.3157 13.7775 16.3364 13.7824 16.3571C13.7861 16.3741 13.7909 16.3912 13.7946 16.4082C13.7994 16.4253 13.8031 16.4435 13.808 16.4605C13.8128 16.4776 13.8189 16.4934 13.825 16.5104C13.8311 16.5275 13.8372 16.5457 13.8445 16.5628C13.8506 16.5774 13.8579 16.592 13.8652 16.6078C13.8737 16.626 13.881 16.6431 13.8907 16.6601C13.898 16.6735 13.9065 16.6869 13.9151 16.7003C13.9248 16.7173 13.9345 16.7344 13.9467 16.7514C13.9564 16.766 13.9674 16.7794 13.9783 16.794C13.9893 16.8086 13.999 16.8232 14.0112 16.8378C14.0307 16.8621 14.0513 16.884 14.0733 16.9072C14.0769 16.9108 14.0793 16.9145 14.083 16.9181L17.1813 20.0164C17.3955 20.2306 17.6754 20.3377 17.9553 20.3377C18.2351 20.3377 18.5163 20.2306 18.7292 20.0164C19.1564 19.5893 19.1564 18.8956 18.7292 18.4673V18.466Z" fill="black"/>
</svg>
