<svg width="30" height="30" viewBox="0 0 30 30" fill="none" xmlns="http://www.w3.org/2000/svg">
<path d="M8.82749 13.3724H7.5363C7.109 13.3724 6.76221 13.0256 6.76221 12.5983C6.76221 12.171 7.109 11.8242 7.5363 11.8242H8.83059C9.25788 11.8242 9.60468 12.171 9.60468 12.5983C9.60468 13.0256 9.25789 13.3724 8.82749 13.3724Z" fill="black"/>
<path d="M15.6455 13.3724H14.3512C13.9239 13.3724 13.5771 13.0256 13.5771 12.5983C13.5771 12.171 13.9239 11.8242 14.3512 11.8242H15.6455C16.0728 11.8242 16.4196 12.171 16.4196 12.5983C16.4196 13.0256 16.0728 13.3724 15.6455 13.3724Z" fill="black"/>
<path d="M22.4608 13.3724H21.1696C20.7423 13.3724 20.3955 13.0256 20.3955 12.5983C20.3955 12.171 20.7423 11.8242 21.1696 11.8242H22.4608C22.8881 11.8242 23.2349 12.171 23.2349 12.5983C23.2349 13.0256 22.8881 13.3724 22.4608 13.3724Z" fill="black"/>
<path d="M8.82749 17.1534H7.5363C7.109 17.1534 6.76221 16.8066 6.76221 16.3793C6.76221 15.952 7.109 15.6052 7.5363 15.6052H8.83059C9.25788 15.6052 9.60468 15.952 9.60468 16.3793C9.60468 16.8066 9.25789 17.1534 8.82749 17.1534Z" fill="black"/>
<path d="M15.6455 17.1534H14.3512C13.9239 17.1534 13.5771 16.8066 13.5771 16.3793C13.5771 15.952 13.9239 15.6052 14.3512 15.6052H15.6455C16.0728 15.6052 16.4196 15.952 16.4196 16.3793C16.4196 16.8066 16.0728 17.1534 15.6455 17.1534Z" fill="black"/>
<path d="M22.4608 17.1534H21.1696C20.7423 17.1534 20.3955 16.8066 20.3955 16.3793C20.3955 15.952 20.7423 15.6052 21.1696 15.6052H22.4608C22.8881 15.6052 23.2349 15.952 23.2349 16.3793C23.2349 16.8066 22.8881 17.1534 22.4608 17.1534Z" fill="black"/>
<path d="M22.4608 20.9308H21.1696C20.7423 20.9308 20.3955 20.584 20.3955 20.1567C20.3955 19.7294 20.7423 19.3826 21.1696 19.3826H22.4608C22.8881 19.3826 23.2349 19.7294 23.2349 20.1567C23.2349 20.584 22.8881 20.9308 22.4608 20.9308Z" fill="black"/>
<path d="M8.82749 20.9308H7.5363C7.109 20.9308 6.76221 20.584 6.76221 20.1567C6.76221 19.7294 7.109 19.3826 7.5363 19.3826H8.83059C9.25788 19.3826 9.60468 19.7294 9.60468 20.1567C9.60468 20.584 9.25789 20.9308 8.82749 20.9308Z" fill="black"/>
<path d="M15.6455 20.9308H14.3512C13.9239 20.9308 13.5771 20.584 13.5771 20.1567C13.5771 19.7294 13.9239 19.3826 14.3512 19.3826H15.6455C16.0728 19.3826 16.4196 19.7294 16.4196 20.1567C16.4196 20.584 16.0728 20.9308 15.6455 20.9308Z" fill="black"/>
<path d="M24.3031 6.80519H22.5877V5.77409C22.5877 5.34679 22.2409 5 21.8136 5C21.3863 5 21.0395 5.34679 21.0395 5.77409V6.80519H15.7725V5.77409C15.7725 5.34679 15.4258 5 14.9985 5C14.5712 5 14.2244 5.34679 14.2244 5.77409V6.80519H8.95742V5.77409C8.95742 5.34679 8.61063 5 8.18333 5C7.75603 5 7.40924 5.34679 7.40924 5.77409V6.80519H5.69385C4.20759 6.80828 3.0031 8.01277 3 9.49903V22.8042C3.0031 24.2904 4.20759 25.4949 5.69385 25.498H24.3062C25.7924 25.4949 27 24.2904 27 22.8042V9.49903C26.9969 8.01277 25.7924 6.80828 24.3031 6.80519ZM25.4518 22.8042C25.4518 23.4358 24.9378 23.9498 24.3062 23.9498H5.69075C5.05909 23.9498 4.54509 23.4358 4.54509 22.8042V9.49903C4.54509 8.86737 5.05909 8.35337 5.69075 8.35337H7.40614V8.81783C7.40614 9.24513 7.75293 9.59192 8.18023 9.59192C8.60753 9.59192 8.95433 9.24513 8.95433 8.81783V8.35337H14.2244V8.81783C14.2244 9.24513 14.5712 9.59192 14.9985 9.59192C15.4258 9.59192 15.7725 9.24513 15.7725 8.81783V8.35337H21.0395V8.81783C21.0395 9.24513 21.3863 9.59192 21.8136 9.59192C22.2409 9.59192 22.5877 9.24513 22.5877 8.81783V8.35337H24.3031C24.9347 8.35337 25.4487 8.86737 25.4487 9.49903V22.8042H25.4518Z" fill="black"/>
</svg>
