<svg width="18" height="18" viewBox="0 0 18 18" fill="none" xmlns="http://www.w3.org/2000/svg">
<path d="M9 17.3335C5.14049 17.3335 2 14.193 2 10.3335C2 6.47399 5.14049 3.3335 9 3.3335C12.8595 3.3335 16 6.47399 16 10.3335C16 14.193 12.8595 17.3335 9 17.3335ZM9 4.88905C5.99778 4.88905 3.55556 7.33127 3.55556 10.3335C3.55556 13.3357 5.99778 15.7779 9 15.7779C12.0022 15.7779 14.4444 13.3357 14.4444 10.3335C14.4444 7.33127 12.0022 4.88905 9 4.88905Z" fill="black"/>
<path d="M9.77767 2.55556H8.22211C7.79261 2.55556 7.44434 2.20728 7.44434 1.77778C7.44434 1.34827 7.79261 1 8.22211 1H9.77767C10.2072 1 10.5554 1.34827 10.5554 1.77778C10.5554 2.20728 10.2072 2.55556 9.77767 2.55556Z" fill="black"/>
<path d="M11.7498 11.983L9.77772 10.0109V7.22211C9.77772 6.79261 9.42945 6.44434 8.99995 6.44434C8.57044 6.44434 8.22217 6.79261 8.22217 7.22211V10.3324C8.22217 10.3583 8.2239 10.3842 8.22562 10.4101C8.22649 10.4205 8.22908 10.4309 8.22995 10.4412C8.23167 10.4559 8.2334 10.4706 8.23686 10.4853C8.23945 10.4974 8.24291 10.5095 8.2455 10.5216C8.24896 10.5337 8.25155 10.5467 8.25501 10.5588C8.25846 10.5709 8.26278 10.5821 8.26711 10.5942C8.27143 10.6063 8.27575 10.6193 8.28093 10.6314C8.28525 10.6417 8.29044 10.6521 8.29562 10.6633C8.30167 10.6763 8.30686 10.6884 8.31377 10.7005C8.31896 10.71 8.32501 10.7195 8.33106 10.729C8.33797 10.7411 8.34488 10.7532 8.35353 10.7653C8.36044 10.7757 8.36822 10.7852 8.376 10.7956C8.38377 10.8059 8.39069 10.8163 8.39933 10.8267C8.41316 10.844 8.42785 10.8595 8.4434 10.8759C8.44599 10.8785 8.44772 10.8811 8.45032 10.8837L10.6506 13.084C10.8027 13.2361 11.0014 13.3121 11.2002 13.3121C11.399 13.3121 11.5986 13.2361 11.7498 13.084C12.0532 12.7806 12.0532 12.288 11.7498 11.9838V11.983Z" fill="black"/>
</svg>
