<svg width="30" height="30" viewBox="0 0 30 30" fill="none" xmlns="http://www.w3.org/2000/svg">
<path d="M24.1667 6.42857H20.8333V5.57143C20.8333 4.15178 19.7135 3 18.3333 3H11.6667C10.2865 3 9.16667 4.15178 9.16667 5.57143V6.42857H5.83333C5.37291 6.42857 5 6.81213 5 7.28571C5 7.7593 5.37291 8.14286 5.83333 8.14286H6.66667V24.4286C6.66667 25.8482 7.78645 27 9.16667 27H20.8333C22.2135 27 23.3333 25.8482 23.3333 24.4286V8.14286H24.1667C24.6271 8.14286 25 7.7593 25 7.28571C25 6.81213 24.6271 6.42857 24.1667 6.42857ZM10.8333 5.57143C10.8333 5.09785 11.2062 4.71429 11.6667 4.71429H18.3333C18.5542 4.71429 18.7667 4.80428 18.9229 4.965C19.0792 5.12571 19.1667 5.34428 19.1667 5.57142V6.42856H10.8333L10.8333 5.57143ZM21.6667 24.4286C21.6667 24.6557 21.5792 24.8743 21.4229 25.035C21.2667 25.1957 21.0542 25.2857 20.8333 25.2857H9.16668C8.70625 25.2857 8.33334 24.9021 8.33334 24.4286V8.14285H21.6667L21.6667 24.4286ZM13.3333 12.4286V21C13.3333 21.4736 12.9604 21.8571 12.5 21.8571C12.0396 21.8571 11.6667 21.4736 11.6667 21V12.4286C11.6667 11.955 12.0396 11.5714 12.5 11.5714C12.9604 11.5714 13.3333 11.955 13.3333 12.4286ZM18.3333 12.4286V21C18.3333 21.4736 17.9604 21.8571 17.5 21.8571C17.0396 21.8571 16.6667 21.4736 16.6667 21V12.4286C16.6667 11.955 17.0396 11.5714 17.5 11.5714C17.9604 11.5714 18.3333 11.955 18.3333 12.4286Z" fill="black"/>
</svg>
