<svg width="16" height="16" viewBox="0 0 16 16" fill="none" xmlns="http://www.w3.org/2000/svg">
<path d="M15.7817 14.6087L12.8176 11.6502C15.0847 8.83558 14.8684 4.66966 12.2809 2.10295C10.927 0.751624 9.11651 0 7.19387 0C5.27123 0 3.47677 0.75962 2.10689 2.11094C0.753034 3.46227 0 5.26936 0 7.18841C0 9.10745 0.753034 10.8986 2.10689 12.2659C3.46075 13.6172 5.27123 14.3688 7.19387 14.3688C8.82011 14.3688 10.4143 13.8171 11.688 12.8016L14.6521 15.7601C14.8123 15.92 15.0126 16 15.2049 16C15.4212 16 15.6214 15.92 15.7576 15.7601C16.0781 15.4243 16.0781 14.9285 15.7737 14.6087H15.7817ZM12.8016 7.16442C12.8016 8.65167 12.2248 10.059 11.1753 11.1144C10.1259 12.1699 8.70795 12.7376 7.21791 12.7376C5.72786 12.7376 4.31793 12.1619 3.26048 11.1144C2.20302 10.067 1.63424 8.65167 1.63424 7.16442C1.63424 5.67716 2.21104 4.26987 3.26048 3.21439C4.31793 2.15892 5.72786 1.5912 7.21791 1.5912C8.70795 1.5912 10.1179 2.16692 11.1753 3.21439C12.2328 4.26987 12.8016 5.67716 12.8016 7.16442Z" fill="#696A73"/>
</svg>
