<svg width="30" height="30" viewBox="0 0 30 30" fill="none" xmlns="http://www.w3.org/2000/svg">
<g clip-path="url(#clip0_345_11322)">
<path d="M2.7118 19.121L3.96715 19.485C5.27427 19.862 6.06371 21.201 5.76605 22.54L5.48133 23.814C5.39074 24.204 5.57193 24.607 5.92135 24.815L11.344 27.896C11.4863 27.974 11.6416 28.013 11.784 28.013C12.0169 28.013 12.2369 27.922 12.4181 27.753L13.3499 26.843C14.3335 25.894 15.8865 25.868 16.883 26.804L17.8407 27.688C18.1384 27.961 18.5784 28.013 18.9149 27.805L24.2728 24.62C24.6222 24.412 24.7904 23.996 24.6869 23.606L24.3634 22.358C24.0269 21.019 24.7904 19.654 26.0976 19.251L27.3529 18.861C27.7412 18.744 28 18.38 27.9871 17.977L27.9353 11.724C27.9353 11.321 27.6635 10.97 27.2753 10.853L26.0199 10.489C24.7128 10.112 23.9233 8.77302 24.221 7.43402L24.5187 6.16002C24.6093 5.77002 24.4281 5.36702 24.0786 5.15902L18.669 2.11702C18.3196 1.90902 17.8795 1.97402 17.5819 2.26002L16.663 3.15702C15.6794 4.11902 14.1264 4.14502 13.117 3.20902L12.1593 2.31202C11.8616 2.03902 11.4216 1.98702 11.0851 2.19502L5.72723 5.36702C5.3778 5.57502 5.20956 5.99102 5.31309 6.38102L5.63664 7.62902C5.97312 8.96802 5.2225 10.333 3.90244 10.736L2.64709 11.126C2.25884 11.23 2 11.594 2 11.997L2.05177 18.25C2.05177 18.653 2.32354 19.004 2.7118 19.121ZM4.42011 12.478C6.65903 11.789 7.96615 9.46202 7.38377 7.17402L7.22847 6.58902L11.4216 4.10602L11.8875 4.53502C13.6088 6.13402 16.2618 6.10802 17.9443 4.45702L18.3713 4.04102L22.6033 6.44602L22.4609 7.05702C21.9433 9.33202 23.2892 11.633 25.5281 12.27L26.1234 12.439L26.1752 17.327L25.5669 17.509C23.328 18.198 22.0209 20.525 22.6033 22.813L22.7456 23.398L18.5525 25.881L18.0996 25.452C16.3912 23.853 13.7382 23.879 12.0687 25.504L11.6157 25.933L7.37083 23.528L7.51319 22.917C8.03086 20.642 6.68492 18.341 4.44599 17.704L3.85067 17.535L3.7989 12.634L4.40717 12.452L4.42011 12.478Z" fill="#7F8087"/>
<path d="M14.9935 21.2792C18.449 21.2792 21.2444 18.4582 21.2444 15.0002C21.2444 11.5422 18.4361 8.72119 14.9935 8.72119C11.551 8.72119 8.74268 11.5422 8.74268 15.0002C8.74268 18.4582 11.551 21.2792 14.9935 21.2792ZM14.9935 10.5412C17.4395 10.5412 19.4326 12.5432 19.4326 15.0002C19.4326 17.4572 17.4395 19.4592 14.9935 19.4592C12.5476 19.4592 10.5545 17.4572 10.5545 15.0002C10.5545 12.5432 12.5476 10.5412 14.9935 10.5412Z" fill="#7F8087"/>
</g>
<defs>
<clipPath id="clip0_345_11322">
<rect width="26" height="26" fill="white" transform="translate(2 2)"/>
</clipPath>
</defs>
</svg>
