<svg width="16" height="16" viewBox="0 0 16 16" fill="none" xmlns="http://www.w3.org/2000/svg">
<path fill-rule="evenodd" clip-rule="evenodd" d="M5.80005 1.33338C5.80005 1.03883 6.03883 0.800049 6.33338 0.800049H9.66672C9.96127 0.800049 10.2 1.03883 10.2 1.33338C10.2 1.62793 9.96127 1.86672 9.66672 1.86672H6.33338C6.03883 1.86672 5.80005 1.62793 5.80005 1.33338ZM8.00005 3.77148C5.16919 3.77148 2.86672 6.08685 2.86672 8.95243C2.86672 11.818 5.16919 14.1334 8.00005 14.1334C10.8309 14.1334 13.1334 11.818 13.1334 8.95243C13.1334 6.08685 10.8309 3.77148 8.00005 3.77148ZM1.80005 8.95243C1.80005 5.50618 4.57168 2.70481 8.00005 2.70481C11.4284 2.70481 14.2 5.50618 14.2 8.95243C14.2 12.3987 11.4284 15.2 8.00005 15.2C4.57168 15.2 1.80005 12.3987 1.80005 8.95243ZM8.00005 6.02732C8.2946 6.02732 8.53338 6.2661 8.53338 6.56066V8.81174C8.53338 9.10629 8.2946 9.34507 8.00005 9.34507C7.7055 9.34507 7.46672 9.10629 7.46672 8.81174V6.56066C7.46672 6.2661 7.7055 6.02732 8.00005 6.02732Z" fill="#8D8E8F"/>
</svg>
