<svg width="14" height="17" viewBox="0 0 14 17" fill="none" xmlns="http://www.w3.org/2000/svg">
<g id="Group 4">
<path id="Vector" d="M7 16.3335C3.14049 16.3335 0 13.193 0 9.3335C0 5.47399 3.14049 2.3335 7 2.3335C10.8595 2.3335 14 5.47399 14 9.3335C14 13.193 10.8595 16.3335 7 16.3335ZM7 3.88905C3.99778 3.88905 1.55556 6.33127 1.55556 9.3335C1.55556 12.3357 3.99778 14.7779 7 14.7779C10.0022 14.7779 12.4444 12.3357 12.4444 9.3335C12.4444 6.33127 10.0022 3.88905 7 3.88905Z" fill="black"/>
<path id="Vector_2" d="M7.77767 1.55556H6.22211C5.79261 1.55556 5.44434 1.20728 5.44434 0.777778C5.44434 0.348272 5.79261 0 6.22211 0H7.77767C8.20718 0 8.55545 0.348272 8.55545 0.777778C8.55545 1.20728 8.20718 1.55556 7.77767 1.55556Z" fill="black"/>
<path id="Vector_3" d="M9.74982 10.983L7.77772 9.01088V6.22211C7.77772 5.79261 7.42945 5.44434 6.99995 5.44434C6.57044 5.44434 6.22217 5.79261 6.22217 6.22211V9.33236C6.22217 9.35829 6.2239 9.38421 6.22562 9.41014C6.22649 9.42051 6.22908 9.43088 6.22995 9.44125C6.23167 9.45594 6.2334 9.47063 6.23686 9.48532C6.23945 9.49742 6.24291 9.50952 6.2455 9.52162C6.24896 9.53372 6.25155 9.54668 6.25501 9.55878C6.25846 9.57088 6.26278 9.58211 6.26711 9.59421C6.27143 9.60631 6.27575 9.61927 6.28093 9.63137C6.28525 9.64174 6.29044 9.65211 6.29562 9.66335C6.30167 9.67631 6.30686 9.68841 6.31377 9.70051C6.31896 9.71001 6.32501 9.71952 6.33106 9.72903C6.33797 9.74113 6.34488 9.75322 6.35353 9.76532C6.36044 9.77569 6.36822 9.7852 6.376 9.79557C6.38377 9.80594 6.39069 9.81631 6.39933 9.82668C6.41316 9.84397 6.42785 9.85952 6.4434 9.87594C6.44599 9.87853 6.44772 9.88113 6.45032 9.88372L8.65056 12.084C8.80266 12.2361 9.00143 12.3121 9.20019 12.3121C9.39896 12.3121 9.59859 12.2361 9.74982 12.084C10.0532 11.7806 10.0532 11.288 9.74982 10.9838V10.983Z" fill="black"/>
</g>
</svg>
