<svg width="24" height="24" viewBox="0 0 24 24" fill="none" xmlns="http://www.w3.org/2000/svg">
<path d="M12 22C17.5228 22 22 17.5228 22 12C22 6.47715 17.5228 2 12 2C6.47715 2 2 6.47715 2 12C2 17.5228 6.47715 22 12 22Z" fill="#D9DDE4" style="fill:#D9DDE4;fill:color(display-p3 0.8523 0.8649 0.8950);fill-opacity:1;"/>
<path fill-rule="evenodd" clip-rule="evenodd" d="M15.7355 8.26455C16.0882 8.61728 16.0882 9.18917 15.7355 9.5419L9.5419 15.7355C9.18917 16.0882 8.61728 16.0882 8.26455 15.7355C7.91182 15.3827 7.91182 14.8108 8.26455 14.4581L14.4581 8.26455C14.8108 7.91182 15.3827 7.91182 15.7355 8.26455Z" fill="white" style="fill:white;fill-opacity:1;"/>
<path fill-rule="evenodd" clip-rule="evenodd" d="M8.26455 8.26455C8.61728 7.91182 9.18917 7.91182 9.5419 8.26455L15.7355 14.4581C16.0882 14.8108 16.0882 15.3827 15.7355 15.7355C15.3827 16.0882 14.8108 16.0882 14.4581 15.7355L8.26455 9.5419C7.91182 9.18917 7.91182 8.61728 8.26455 8.26455Z" fill="white" style="fill:white;fill-opacity:1;"/>
</svg>
