<svg width="24" height="24" viewBox="0 0 24 24" fill="none" xmlns="http://www.w3.org/2000/svg">
<path d="M16.2353 11.1111H20C20.5523 11.1111 21 11.5533 21 12.0988V17.8686V18C21 19.1046 20.1046 20 19 20H5.25M3 5.98765V18.0313C3 19.1186 3.88144 20 4.96875 20V20C6.05606 20 6.9375 19.1186 6.9375 18.0313V12.0988C6.9375 11.5533 7.38522 11.1111 7.9375 11.1111H19V8.77633C19 8.23086 18.5523 7.78867 18 7.78867H11.4118L9.88369 5.45183C9.69949 5.17014 9.38317 5 9.04365 5H4C3.44772 5 3 5.44219 3 5.98765Z" stroke="#2A2E40" style="stroke:#2A2E40;stroke:color(display-p3 0.1647 0.1804 0.2510);stroke-opacity:1;" stroke-width="2" stroke-linecap="round" stroke-linejoin="round"/>
</svg>
