<svg width="24" height="24" viewBox="0 0 24 24" fill="none" xmlns="http://www.w3.org/2000/svg">
<path d="M11.5 13C12.3284 13 13 12.3284 13 11.5C13 10.6716 12.3284 10 11.5 10C10.6716 10 10 10.6716 10 11.5C10 12.3284 10.6716 13 11.5 13Z" fill="#2A2E40" style="fill:#2A2E40;fill:color(display-p3 0.1647 0.1804 0.2510);fill-opacity:1;"/>
<path d="M11.5 6C12.3284 6 13 5.32843 13 4.5C13 3.67157 12.3284 3 11.5 3C10.6716 3 10 3.67157 10 4.5C10 5.32843 10.6716 6 11.5 6Z" fill="#2A2E40" style="fill:#2A2E40;fill:color(display-p3 0.1647 0.1804 0.2510);fill-opacity:1;"/>
<path d="M11.5 20C12.3284 20 13 19.3284 13 18.5C13 17.6716 12.3284 17 11.5 17C10.6716 17 10 17.6716 10 18.5C10 19.3284 10.6716 20 11.5 20Z" fill="#2A2E40" style="fill:#2A2E40;fill:color(display-p3 0.1647 0.1804 0.2510);fill-opacity:1;"/>
</svg>
