<svg width="16" height="13" viewBox="0 0 16 13" fill="none" xmlns="http://www.w3.org/2000/svg">
<g id="_?&#235;&#140;&#129;&#235;&#188;&#177;_1" clip-path="url(#clip0_54_1269)">
<path id="Vector" d="M11.2283 5.37627C12.696 5.37627 13.899 4.17167 13.899 2.68411C13.899 1.19655 12.704 -0.00805664 11.2283 -0.00805664C9.7526 -0.00805664 8.55762 1.19655 8.55762 2.68411C8.55762 4.17167 9.7526 5.37627 11.2283 5.37627ZM12.7521 2.68411C12.7521 3.53299 12.0704 4.22018 11.2283 4.22018C10.3862 4.22018 9.70448 3.53299 9.70448 2.68411C9.70448 1.83523 10.3862 1.14804 11.2283 1.14804C12.0704 1.14804 12.7521 1.83523 12.7521 2.68411Z" fill="black"/>
<path id="Vector_2" d="M11.2278 6.24124C10.6905 6.24124 10.1772 6.33017 9.696 6.49995C9.39926 6.60504 9.24688 6.93651 9.35114 7.23564C9.44738 7.51052 9.72808 7.65604 10.0008 7.59945C10.0248 7.59945 10.0569 7.59945 10.081 7.59136C10.4338 7.46201 10.8188 7.39733 11.2278 7.39733C12.1983 7.39733 13.1125 7.77731 13.7942 8.4645C14.4759 9.15169 14.8529 10.0733 14.8529 11.0516C14.8529 11.2618 14.7727 11.4639 14.6203 11.6175C14.4679 11.7711 14.2754 11.8519 14.0669 11.8519H10.9952C10.9551 11.8519 10.9231 11.8681 10.883 11.8762C10.6263 11.9328 10.4258 12.1511 10.4258 12.4259C10.4258 12.7412 10.6825 12.9999 10.9952 12.9999H14.0669C14.5802 12.9999 15.0614 12.7978 15.4303 12.4259C15.7993 12.054 15.9998 11.569 15.9998 11.0435C15.9998 9.75803 15.5025 8.54534 14.6043 7.63987C13.706 6.7344 12.503 6.23315 11.2278 6.23315V6.24124Z" fill="black"/>
<path id="Vector_3" d="M4.77203 5.37624C6.2397 5.37624 7.44271 4.17164 7.44271 2.68408C7.44271 1.19652 6.24772 0 4.77203 0C3.29634 0 2.10938 1.2046 2.10938 2.69216C2.10938 4.17973 3.30436 5.38433 4.78005 5.38433L4.77203 5.37624ZM4.77203 1.14801C5.61414 1.14801 6.29584 1.8352 6.29584 2.68408C6.29584 3.53296 5.61414 4.22015 4.77203 4.22015C3.92993 4.22015 3.24822 3.53296 3.24822 2.68408C3.24822 1.8352 3.92993 1.14801 4.77203 1.14801Z" fill="black"/>
<path id="Vector_4" d="M1.93283 12.9999H7.61103C8.67769 12.9999 9.54386 12.1268 9.54386 11.0515C9.54386 8.39979 7.40251 6.24121 4.77193 6.24121C2.14135 6.24121 0 8.39979 0 11.0515C0 12.1268 0.866165 12.9999 1.93283 12.9999ZM4.77193 7.38922C6.77694 7.38922 8.40501 9.03039 8.40501 11.0515C8.40501 11.4881 8.05213 11.8519 7.61103 11.8519H1.93283C1.49975 11.8519 1.13885 11.4962 1.13885 11.0515C1.13885 9.03039 2.76692 7.38922 4.77193 7.38922Z" fill="black"/>
</g>
<defs>
<clipPath id="clip0_54_1269">
<rect width="16" height="13" fill="white"/>
</clipPath>
</defs>
</svg>
