<svg width="18" height="18" viewBox="0 0 18 18" fill="none" xmlns="http://www.w3.org/2000/svg">
<path fill-rule="evenodd" clip-rule="evenodd" d="M12.0596 11.0313C12.1272 11.0988 12.1807 11.179 12.2173 11.2672C12.2538 11.3554 12.2726 11.45 12.2726 11.5455C12.2726 11.6409 12.2538 11.7355 12.2173 11.8237C12.1807 11.912 12.1272 11.9921 12.0596 12.0596C11.9921 12.1272 11.912 12.1807 11.8237 12.2173C11.7355 12.2538 11.6409 12.2726 11.5455 12.2726C11.45 12.2726 11.3554 12.2538 11.2672 12.2173C11.179 12.1807 11.0988 12.1272 11.0313 12.0596L9 10.0284L6.96873 12.0596C6.90134 12.1274 6.82123 12.1812 6.73298 12.2179C6.64474 12.2546 6.55012 12.2735 6.45455 12.2735C6.35898 12.2735 6.26435 12.2546 6.17611 12.2179C6.08786 12.1812 6.00775 12.1274 5.94036 12.0596C5.87277 11.9922 5.81914 11.912 5.78255 11.8238C5.74596 11.7355 5.72713 11.641 5.72713 11.5455C5.72713 11.4499 5.74596 11.3554 5.78255 11.2671C5.81914 11.1789 5.87277 11.0988 5.94036 11.0313L7.97164 9L5.94036 6.96873C5.87284 6.9012 5.81928 6.82104 5.78273 6.73282C5.74619 6.6446 5.72738 6.55004 5.72738 6.45455C5.72738 6.35905 5.74619 6.2645 5.78273 6.17627C5.81928 6.08805 5.87284 6.00789 5.94036 5.94036C6.00789 5.87284 6.08805 5.81928 6.17627 5.78273C6.2645 5.74619 6.35905 5.72738 6.45455 5.72738C6.55004 5.72738 6.6446 5.74619 6.73282 5.78273C6.82104 5.81928 6.9012 5.87284 6.96873 5.94036L9 7.97164L11.0313 5.94036C11.0988 5.87284 11.179 5.81928 11.2672 5.78273C11.3554 5.74619 11.45 5.72738 11.5455 5.72738C11.6409 5.72738 11.7355 5.74619 11.8237 5.78273C11.912 5.81928 11.9921 5.87284 12.0596 5.94036C12.1272 6.00789 12.1807 6.08805 12.2173 6.17627C12.2538 6.2645 12.2726 6.35905 12.2726 6.45455C12.2726 6.55004 12.2538 6.6446 12.2173 6.73282C12.1807 6.82104 12.1272 6.9012 12.0596 6.96873L10.0284 9L12.0596 11.0313ZM9 1C4.58182 1 1 4.58182 1 9C1 13.4182 4.58182 17 9 17C13.4182 17 17 13.4182 17 9C17 4.58182 13.4182 1 9 1Z" fill="black"/>
</svg>
